<svg id="e7f29efa-1b6c-40be-afd6-b725fd9df8a2" data-name="b9ab5d06-2b27-45fd-a64e-2f5746cff4c4" xmlns="http://www.w3.org/2000/svg" width="1477.63" height="226.05" viewBox="0 0 1477.63 226.05"><defs><style>.f5e77563-f45c-45de-a128-85bc34425292{fill:#fff;}</style></defs><title>logo_dark</title><g id="afd41439-dc70-468d-a1c6-c66d5b366a3c" data-name="bc2dc65f-9ab7-4611-8658-d3ec2c52ad9b"><g id="bedf7821-cd0a-455f-9897-f66c78bbbe96" data-name="a8f021e5-d756-4d45-b037-e01da07bd1f9"><path class="f5e77563-f45c-45de-a128-85bc34425292" d="M115.58,0C85.5,0,59.25,18.31,44.63,34L15.44,11.91c-4-3.07-10.1.2-9.07,4.9L14.5,53.5,6.37,90.17c-1,4.7,5,8,9.07,4.9L44.63,73c14.62,15.66,40.88,34,70.95,34,46,0,83.2-42.78,83.2-53.48S161.5,0,115.58,0Zm29.23,64.18A10.7,10.7,0,1,1,155.5,53.47v0A10.7,10.7,0,0,1,144.81,64.18Z" transform="translate(-0.03)"/></g><path id="ffc85add-62f7-4cd7-9d41-4c0de4663725" data-name="a4750653-1f9c-4943-8e88-148c2dfa9bcf" class="f5e77563-f45c-45de-a128-85bc34425292" d="M77,221.81c27.86,0,52.16-18.31,65.7-34l27,22.07a5.18,5.18,0,0,0,8.41-4.89l-7.49-36.68,7.49-36.7a5.18,5.18,0,0,0-8.4-4.9l-27,22.08c-13.54-15.66-37.86-34-65.71-34-42.54,0-77,42.78-77,53.48S34.5,221.81,77,221.81Zm32.8-55.07L113,169.9a2.23,2.23,0,0,1,0,3.15L89.41,196.64a2.23,2.23,0,0,1-3.15,0l-3.15-3.14a2.23,2.23,0,0,1,0-3.15l23.57-23.59a2.25,2.25,0,0,1,3.15,0ZM93.32,144.5a2.23,2.23,0,0,1,3.15,0l3.15,3.15a2.23,2.23,0,0,1,0,3.15L58.21,192.19a2.23,2.23,0,0,1-3.15,0L51.91,189a2.23,2.23,0,0,1,0-3.15ZM38.5,163.59,62.09,140a2.23,2.23,0,0,1,3.15,0l3.15,3.15a2.23,2.23,0,0,1,0,3.15L44.84,169.9a2.23,2.23,0,0,1-3.15,0l-3.19-3.15a2.23,2.23,0,0,1,0-3.15Z" transform="translate(-0.03)"/></g><path class="f5e77563-f45c-45de-a128-85bc34425292" d="M325.33,107.73v49.2q0,7.33,5.35,9.41,3.51,1.4,21.23,1.4a298.36,298.36,0,0,0,41.72-2.45,24.15,24.15,0,0,1,3.6-.38,7.47,7.47,0,0,1,6.65,3.14,6.21,6.21,0,0,1,1.11,3.68q0,6.47-6.37,7.66-14.13,2.45-43,2.45-26.42,0-33.8-2.31-8-2.46-10.33-9.8a31.93,31.93,0,0,1-1.11-9.33V109.48l-42,4.7a4.54,4.54,0,0,1-1.22.1q-6.37,0-6.38-6.73c0-3.67,2.15-5.69,6.46-6.2l43.11-5V48.1a6,6,0,0,1,2.45-5.17,8.8,8.8,0,0,1,10.15.27,6,6,0,0,1,2.31,4.9V94.62l87.89-10.25a9.87,9.87,0,0,1,1.22-.08Q421,84.29,421,91q0,5.83-6.46,6.55Z" transform="translate(-0.03)"/><path class="f5e77563-f45c-45de-a128-85bc34425292" d="M449.63,83.17q5.36,0,18.65,8.4a56.36,56.36,0,0,1,5.9,4.15,8.87,8.87,0,0,1,3.6,6.83,7.69,7.69,0,0,1-1.47,4.44,5.77,5.77,0,0,1-5.08,2.59q-3.23,0-6.65-3.67A114.43,114.43,0,0,0,448.07,92a5.14,5.14,0,0,1-2.69-4.34,4.75,4.75,0,0,1,1.11-3A3.84,3.84,0,0,1,449.63,83.17Zm25.48,49.48c3.87,0,5.82,1.78,5.82,5.36q0,2.78-3.24,11.53-8.22,22.44-15.41,33.79c-1.91,3-4.16,4.52-6.75,4.52a7.15,7.15,0,0,1-4.43-1.57,6.33,6.33,0,0,1-2.67-5.26c0-1.71,1.11-4.31,3.32-7.75a197.33,197.33,0,0,0,18.05-35.81Q471.69,132.64,475.11,132.65ZM459.42,43c1.66,0,4.27.84,7.84,2.45Q486.85,54.31,486.85,62a7.23,7.23,0,0,1-1.38,4.16,6.29,6.29,0,0,1-5.63,3c-2.21,0-4.4-1.32-6.55-4A59.88,59.88,0,0,0,457.87,52a5.16,5.16,0,0,1-2.76-4.47C455.11,44.53,456.53,43,459.42,43ZM584,166.9c.86.19,2,.46,3.5.84a88.55,88.55,0,0,1,15,4.33q5.18,2.22,5.17,5.82a9.33,9.33,0,0,1-.75,3.41,5.35,5.35,0,0,1-5.18,3.42q-1.37,0-9-2.45c-1.83-.67-4.89-1.53-9-2.58l-1.76-.47c-.37,1.91-.78,3.94-1.23,6.12q-2.83,14.78-11,14.77-5.61,0-17-4.8a60.17,60.17,0,0,1-7.34-3.5,4.61,4.61,0,0,1-2.69-4q0-4,4.35-4a13.43,13.43,0,0,1,3.6.65q10.06,2.76,12.83,2.77c2,0,3.44-1.23,4.25-3.68a66.28,66.28,0,0,0,1.57-7.11,394.83,394.83,0,0,0-60.93-7.1q-12.46-.55-12.46-8.4,0-2.22,2.3-9.7,2.22-7.09,5.27-19.29l-15.78.46q-6.84.19-6.84-5.54c0-3.87,2-5.88,6-6l19.3-.64.64-3q3.22-15.22,5.26-30,.82-6.46,6.46-6.46c3,0,5,1.17,5.91,3.51l56.22-3.88c.73,0,1.22-.1,1.56-.1q10.15,0,10.16,10.81,0,3.14-.83,13l-1,13.2,19.66-.65q6.93-.18,6.92,5.81t-6.37,6.12l-21.41.64Q586.62,150.39,584,166.9ZM526,57l68.77-5.91h.93c4.17,0,6.27,1.88,6.27,5.63,0,4-2.16,6.18-6.45,6.56L519,69.06a106.75,106.75,0,0,1-15.91,20q-3.24,3.14-5.63,3.13a4.41,4.41,0,0,1-3-1.3,5,5,0,0,1-1.85-3.6,6.6,6.6,0,0,1,2.11-4.15A100.36,100.36,0,0,0,509,62.54a169.76,169.76,0,0,0,11.08-24.18Q521.8,33,526,33a8.74,8.74,0,0,1,3.23.65q4.27,1.53,4.27,5.4Q533.46,42.2,526,57Zm12.18,73.85-22.15.74-2.45,10.71q-2.2,9.12-2.68,11.35a4.83,4.83,0,0,1-.18.92,9.17,9.17,0,0,0-.18,1.66,1.5,1.5,0,0,0,1.1,1.57,53.53,53.53,0,0,0,7.48.74q6.82.47,13.76,1.11l.18-.84q2.36-10.53,5.12-28Zm5.36-36.43L523.39,95.6c-.13.93-.31,2.15-.56,3.67q-1,6.28-3.33,16.9l-.82,3.67,21.23-.73,1.39-8.57C542.22,104.52,543,99.15,543.51,94.38Zm7.47,36.1q-2.84,17.91-5.72,30.46,18.81,2.26,26.16,3.56,2.67-17.13,4.33-31.39l.47-3.41Zm4.9-36.93q-.55,7.58-3,25.1l24.65-.82q1.21-11.64,1.94-21.88v-.83c0-2-1-2.89-3-2.77Z" transform="translate(-0.03)"/><path class="f5e77563-f45c-45de-a128-85bc34425292" d="M796.35,133H764a6.21,6.21,0,0,1-4.43-1.67,7.64,7.64,0,0,1-2.22-5.63,6.31,6.31,0,0,1,3.51-6.18,6.6,6.6,0,0,1,3.14-.74h37.55q10.6,0,10.61,10.62v47a6,6,0,0,1-.83,3.15c-1.22,2.22-3.42,3.32-6.55,3.32q-7.2,0-7.2-6.47V157.94a51.2,51.2,0,0,1-22,21.43,48.67,48.67,0,0,1-22.33,5.35q-21.79,0-37.67-12.93-23.53-19.09-23.53-56.21,0-23.62,11.16-41.36a58.35,58.35,0,0,1,26.41-23.08,59.28,59.28,0,0,1,24.16-5A65.51,65.51,0,0,1,790,56.49a44.23,44.23,0,0,1,12.24,11.17,11.9,11.9,0,0,1,2.59,6.46,7.81,7.81,0,0,1-2.59,5.55,8.08,8.08,0,0,1-5.73,2.45,6.49,6.49,0,0,1-4.89-2c-.13-.19-.93-1.23-2.45-3q-12.57-16.25-35-16.25-20.82,0-33.7,17.35-11.44,15.24-11.44,37.57,0,19.59,8.86,33.61a43.81,43.81,0,0,0,15.46,15.09,39.75,39.75,0,0,0,20.45,5.53q18.09,0,30.83-14.69A58.44,58.44,0,0,0,796.35,133Z" transform="translate(-0.03)"/><path class="f5e77563-f45c-45de-a128-85bc34425292" d="M907.67,104.77V96.1a6.41,6.41,0,0,1,1.76-4.61A7.63,7.63,0,0,1,915.34,89q5.07,0,7,3.87a7.22,7.22,0,0,1,.65,3.14v80.12q0,6.65-6.74,6.65-6,0-6.46-6.28L908.58,163A37.61,37.61,0,0,1,888.76,182a31.5,31.5,0,0,1-12.38,2.44q-20.6,0-32.58-14.86-10.6-13.11-10.61-33.06a50.39,50.39,0,0,1,8.48-29.07q12.57-18.3,34.53-18.28Q894.47,89.27,907.67,104.77Zm0,33.51v-6.45a26.44,26.44,0,0,0-4.61-14.78A29.52,29.52,0,0,0,887,105a30.44,30.44,0,0,0-9.32-1.49,25.64,25.64,0,0,0-20.41,9.32q-8,9.33-8,23.91,0,13.2,6.74,22.43a25.49,25.49,0,0,0,21.7,11.14q12.24,0,21.5-10.89Q907.69,149.35,907.67,138.28Z" transform="translate(-0.03)"/><path class="f5e77563-f45c-45de-a128-85bc34425292" d="M973.31,55V175.67a6.68,6.68,0,0,1-1.75,4.62,9.12,9.12,0,0,1-12.9-.19,6.41,6.41,0,0,1-.49-.55,6.61,6.61,0,0,1-1.11-3.88V55a6.48,6.48,0,0,1,2.87-5.53,8.86,8.86,0,0,1,5.25-1.57,8.48,8.48,0,0,1,5.82,2A6.33,6.33,0,0,1,973.31,55Z" transform="translate(-0.03)"/><path class="f5e77563-f45c-45de-a128-85bc34425292" d="M1079.29,104l2.3-8.43q1.38-5.07,5.73-5.07c4.23,0,6.36,1.94,6.36,5.82v89.44q0,18.74-12.24,30.18a27.39,27.39,0,0,1-7.34,4.9,57,57,0,0,1-24.83,5.17q-24,0-36.56-12.25c-2.83-2.76-4.25-5.28-4.24-7.56a7,7,0,0,1,1.57-4.34,7.65,7.65,0,0,1,5.9-3.23c1.79,0,3.94,1.2,6.47,3.6q10.25,10,27.41,10,16.15,0,23.73-10.9a26.6,26.6,0,0,0,4.61-15.68V165.52a28.35,28.35,0,0,1-6.55,8.95Q1062,183,1047.88,183a42.3,42.3,0,0,1-18.83-4.43,43.12,43.12,0,0,1-22.16-24.73,51.06,51.06,0,0,1-3-17.73,46.76,46.76,0,0,1,10.23-30.1,45,45,0,0,1,18.65-13.84,42.23,42.23,0,0,1,15.51-2.95,39.73,39.73,0,0,1,22.16,6.36A31.63,31.63,0,0,1,1079.29,104Zm-1.12,32.31v-3a30.72,30.72,0,0,0-4.15-14.86q-8.68-15.69-24.56-15.69-14.58,0-23.16,12.24a35.82,35.82,0,0,0-6.38,21.33q0,12.56,6.12,21.23,8.4,11.93,23.45,11.91,13.76,0,22.24-12.38a35.81,35.81,0,0,0,6.44-20.83Z" transform="translate(-0.03)"/><path class="f5e77563-f45c-45de-a128-85bc34425292" d="M1194.59,104.77V96.1a6.44,6.44,0,0,1,1.75-4.61,7.62,7.62,0,0,1,5.92-2.45q5.07,0,7,3.87a7.22,7.22,0,0,1,.65,3.14v80.12q0,6.65-6.73,6.65-6,0-6.47-6.28L1195.49,163a37.61,37.61,0,0,1-19.85,19,31.59,31.59,0,0,1-12.36,2.45q-20.6,0-32.6-14.87-10.61-13.11-10.61-33a50.27,50.27,0,0,1,8.5-29.08q12.53-18.3,34.52-18.28Q1181.39,89.27,1194.59,104.77Zm0,33.51v-6.45a26.51,26.51,0,0,0-4.61-14.78A29.51,29.51,0,0,0,1173.91,105a30.44,30.44,0,0,0-9.32-1.49,25.6,25.6,0,0,0-20.4,9.32q-8,9.33-8,23.91,0,13.2,6.73,22.43a25.49,25.49,0,0,0,21.68,11.14q12.26,0,21.51-10.89Q1194.6,149.35,1194.59,138.28Z" transform="translate(-0.03)"/><path class="f5e77563-f45c-45de-a128-85bc34425292" d="M1255.81,104.4q9.5-15.14,26.68-15.13,17,0,22.33,15.32,10.53-15.32,28-15.32,14,0,21.32,10,5.36,7.33,5.36,18.92v57.69a6.51,6.51,0,0,1-2,4.9,8.3,8.3,0,0,1-5.82,2.12,7.76,7.76,0,0,1-6.83-3.32,6.27,6.27,0,0,1-1-3.67v-56.7a21.24,21.24,0,0,0-1.94-9.42q-3.22-6.65-11-6.64-8.86,0-15.78,7.75a22.43,22.43,0,0,0-6.19,15.51v49.47a6.44,6.44,0,0,1-1.66,4.44,8.05,8.05,0,0,1-6.19,2.58,7.48,7.48,0,0,1-6.45-3.05,6.56,6.56,0,0,1-1.23-4V119.73a21.54,21.54,0,0,0-2.45-10.9,10.66,10.66,0,0,0-10-5.71q-9.15,0-16.62,8.3a22.24,22.24,0,0,0-6.12,15.14v49.29a6.34,6.34,0,0,1-2.12,4.9,8.64,8.64,0,0,1-5.91,2.12,7.33,7.33,0,0,1-6.46-3.05,6.58,6.58,0,0,1-1.23-4V97.94c0-4.54,2.07-6.82,6.12-6.82,3.39,0,5.43,2.08,6.12,6.27Z" transform="translate(-0.03)"/><path class="f5e77563-f45c-45de-a128-85bc34425292" d="M1402.82,139.76a32.49,32.49,0,0,0,5.37,17.54q9,13,26.11,13a41.08,41.08,0,0,0,27.51-10,9.54,9.54,0,0,1,6.12-2.58,7.34,7.34,0,0,1,5.35,2.31,7.54,7.54,0,0,1,2.22,5.45c0,2.71-1.73,5.44-5.17,8.22q-13.66,10.78-36.09,10.79-16.07,0-27.88-8a43.91,43.91,0,0,1-16.71-21,51.37,51.37,0,0,1-3.41-18.83q0-18.48,11-31.48,13.66-15.91,36.2-15.92A44.92,44.92,0,0,1,1465,101.32q12.65,11.64,12.65,27.42,0,11-9.6,11Zm.75-12.46h53.87c2,0,3-.84,3-2.45,0-2.45-1-5.49-3.13-9q-7.47-12.47-24-12.46-13.74,0-22.53,9a25.61,25.61,0,0,0-7.16,14.92Z" transform="translate(-0.03)"/></svg>